<svg width="1140" height="370" xmlns="http://www.w3.org/2000/svg">
<rect width="1140" height="370" fill="white"/>
<text x="10" y="20" font-family="monospace" font-size="14">Transaction History Visualization</text>
<line x1="500" y1="80" x2="710" y2="80" stroke="black" stroke-width="2"/>
<line x1="500" y1="65" x2="500" y2="95" stroke="black" stroke-width="2"/>
<line x1="710" y1="65" x2="710" y2="95" stroke="black" stroke-width="2"/>
<text x="450" y="85" font-family="Arial, sans-serif" font-size="16" font-weight="bold">T2</text>
<circle cx="570" cy="80" r="6" fill="red"/>
<text x="550" y="60" font-family="Arial, sans-serif" font-size="14" fill="red">W(k2)</text>
<circle cx="640" cy="80" r="6" fill="red"/>
<text x="620" y="60" font-family="Arial, sans-serif" font-size="14" fill="red">W(k4)</text>
<line x1="290" y1="160" x2="990" y2="160" stroke="black" stroke-width="2"/>
<line x1="290" y1="145" x2="290" y2="175" stroke="black" stroke-width="2"/>
<line x1="990" y1="145" x2="990" y2="175" stroke="black" stroke-width="2"/>
<text x="240" y="165" font-family="Arial, sans-serif" font-size="16" font-weight="bold">T1</text>
<circle cx="780" cy="160" r="6" fill="red"/>
<text x="760" y="140" font-family="Arial, sans-serif" font-size="14" fill="red">R(k1)</text>
<circle cx="850" cy="160" r="6" fill="red"/>
<text x="830" y="140" font-family="Arial, sans-serif" font-size="14" fill="red">W(k5)</text>
<circle cx="920" cy="160" r="6" fill="red"/>
<text x="900" y="140" font-family="Arial, sans-serif" font-size="14" fill="red">W(k2)</text>
<line x1="80" y1="240" x2="430" y2="240" stroke="black" stroke-width="2"/>
<line x1="80" y1="225" x2="80" y2="255" stroke="black" stroke-width="2"/>
<line x1="430" y1="225" x2="430" y2="255" stroke="black" stroke-width="2"/>
<text x="30" y="245" font-family="Arial, sans-serif" font-size="16" font-weight="bold">T0</text>
<circle cx="150" cy="240" r="6" fill="red"/>
<text x="130" y="220" font-family="Arial, sans-serif" font-size="14" fill="red">W(k4)</text>
<circle cx="220" cy="240" r="6" fill="red"/>
<text x="200" y="220" font-family="Arial, sans-serif" font-size="14" fill="red">W(k1)</text>
<circle cx="360" cy="240" r="6" fill="red"/>
<text x="340" y="220" font-family="Arial, sans-serif" font-size="14" fill="red">W(k6)</text>
</svg>